<?xml version="1.0" encoding="UTF-8"?>
<svg xmlns="http://www.w3.org/2000/svg" class="qr-svg qrcode" viewBox="0 0 37 37" preserveAspectRatio="xMidYMid">
<defs>
	<linearGradient id="gradient" x1="100%" y2="100%">
		<stop stop-color="#F26A8D" offset="0"/>
		<stop stop-color="#9C4E97" offset="0.35"/>
		<stop stop-color="#2F3A93" offset="1"/>
	</linearGradient>
	<style><![CDATA[
		.dark{fill: url(#gradient);}
	]]></style>
</defs>
<path class="qr-data-dark dark qrcode" d="M0 0 h1 v1 h-1Z M1 0 h1 v1 h-1Z M2 0 h1 v1 h-1Z M3 0 h1 v1 h-1Z M4 0 h1 v1 h-1Z M5 0 h1 v1 h-1Z M6 0 h1 v1 h-1Z M10.02 0.5 a0.48 0.48 0 1 0 0.96 0 a0.48 0.48 0 1 0 -0.96 0Z M12.02 0.5 a0.48 0.48 0 1 0 0.96 0 a0.48 0.48 0 1 0 -0.96 0Z M13.02 0.5 a0.48 0.48 0 1 0 0.96 0 a0.48 0.48 0 1 0 -0.96 0Z M16.02 0.5 a0.48 0.48 0 1 0 0.96 0 a0.48 0.48 0 1 0 -0.96 0Z M17.02 0.5 a0.48 0.48 0 1 0 0.96 0 a0.48 0.48 0 1 0 -0.96 0Z M18.02 0.5 a0.48 0.48 0 1 0 0.96 0 a0.48 0.48 0 1 0 -0.96 0Z M20.02 0.5 a0.48 0.48 0 1 0 0.96 0 a0.48 0.48 0 1 0 -0.96 0Z M21.02 0.5 a0.48 0.48 0 1 0 0.96 0 a0.48 0.48 0 1 0 -0.96 0Z M23.02 0.5 a0.48 0.48 0 1 0 0.96 0 a0.48 0.48 0 1 0 -0.96 0Z M27.02 0.5 a0.48 0.48 0 1 0 0.96 0 a0.48 0.48 0 1 0 -0.96 0Z M28.02 0.5 a0.48 0.48 0 1 0 0.96 0 a0.48 0.48 0 1 0 -0.96 0Z M30 0 h1 v1 h-1Z M31 0 h1 v1 h-1Z M32 0 h1 v1 h-1Z M33 0 h1 v1 h-1Z M34 0 h1 v1 h-1Z M35 0 h1 v1 h-1Z M36 0 h1 v1 h-1Z M0 1 h1 v1 h-1Z M6 1 h1 v1 h-1Z M9.02 1.5 a0.48 0.48 0 1 0 0.96 0 a0.48 0.48 0 1 0 -0.96 0Z M11.02 1.5 a0.48 0.48 0 1 0 0.96 0 a0.48 0.48 0 1 0 -0.96 0Z M13.02 1.5 a0.48 0.48 0 1 0 0.96 0 a0.48 0.48 0 1 0 -0.96 0Z M15.02 1.5 a0.48 0.48 0 1 0 0.96 0 a0.48 0.48 0 1 0 -0.96 0Z M16.02 1.5 a0.48 0.48 0 1 0 0.96 0 a0.48 0.48 0 1 0 -0.96 0Z M17.02 1.5 a0.48 0.48 0 1 0 0.96 0 a0.48 0.48 0 1 0 -0.96 0Z M18.02 1.5 a0.48 0.48 0 1 0 0.96 0 a0.48 0.48 0 1 0 -0.96 0Z M20.02 1.5 a0.48 0.48 0 1 0 0.96 0 a0.48 0.48 0 1 0 -0.96 0Z M23.02 1.5 a0.48 0.48 0 1 0 0.96 0 a0.48 0.48 0 1 0 -0.96 0Z M26.02 1.5 a0.48 0.48 0 1 0 0.96 0 a0.48 0.48 0 1 0 -0.96 0Z M28.02 1.5 a0.48 0.48 0 1 0 0.96 0 a0.48 0.48 0 1 0 -0.96 0Z M30 1 h1 v1 h-1Z M36 1 h1 v1 h-1Z M0 2 h1 v1 h-1Z M2 2 h1 v1 h-1Z M3 2 h1 v1 h-1Z M4 2 h1 v1 h-1Z M6 2 h1 v1 h-1Z M9.02 2.5 a0.48 0.48 0 1 0 0.96 0 a0.48 0.48 0 1 0 -0.96 0Z M10.02 2.5 a0.48 0.48 0 1 0 0.96 0 a0.48 0.48 0 1 0 -0.96 0Z M11.02 2.5 a0.48 0.48 0 1 0 0.96 0 a0.48 0.48 0 1 0 -0.96 0Z M13.02 2.5 a0.48 0.48 0 1 0 0.96 0 a0.48 0.48 0 1 0 -0.96 0Z M15.02 2.5 a0.48 0.48 0 1 0 0.96 0 a0.48 0.48 0 1 0 -0.96 0Z M18.02 2.5 a0.48 0.48 0 1 0 0.96 0 a0.48 0.48 0 1 0 -0.96 0Z M19.02 2.5 a0.48 0.48 0 1 0 0.96 0 a0.48 0.48 0 1 0 -0.96 0Z M20.02 2.5 a0.48 0.48 0 1 0 0.96 0 a0.48 0.48 0 1 0 -0.96 0Z M21.02 2.5 a0.48 0.48 0 1 0 0.96 0 a0.48 0.48 0 1 0 -0.96 0Z M23.02 2.5 a0.48 0.48 0 1 0 0.96 0 a0.48 0.48 0 1 0 -0.96 0Z M25.02 2.5 a0.48 0.48 0 1 0 0.96 0 a0.48 0.48 0 1 0 -0.96 0Z M26.02 2.5 a0.48 0.48 0 1 0 0.96 0 a0.48 0.48 0 1 0 -0.96 0Z M27.02 2.5 a0.48 0.48 0 1 0 0.96 0 a0.48 0.48 0 1 0 -0.96 0Z M30 2 h1 v1 h-1Z M32 2 h1 v1 h-1Z M33 2 h1 v1 h-1Z M34 2 h1 v1 h-1Z M36 2 h1 v1 h-1Z M0 3 h1 v1 h-1Z M2 3 h1 v1 h-1Z M3 3 h1 v1 h-1Z M4 3 h1 v1 h-1Z M6 3 h1 v1 h-1Z M9.02 3.5 a0.48 0.48 0 1 0 0.96 0 a0.48 0.48 0 1 0 -0.96 0Z M10.02 3.5 a0.48 0.48 0 1 0 0.96 0 a0.48 0.48 0 1 0 -0.96 0Z M13.02 3.5 a0.48 0.48 0 1 0 0.96 0 a0.48 0.48 0 1 0 -0.96 0Z M14.02 3.5 a0.48 0.48 0 1 0 0.96 0 a0.48 0.48 0 1 0 -0.96 0Z M16.02 3.5 a0.48 0.48 0 1 0 0.96 0 a0.48 0.48 0 1 0 -0.96 0Z M17.02 3.5 a0.48 0.48 0 1 0 0.96 0 a0.48 0.48 0 1 0 -0.96 0Z M18.02 3.5 a0.48 0.48 0 1 0 0.96 0 a0.48 0.48 0 1 0 -0.96 0Z M19.02 3.5 a0.48 0.48 0 1 0 0.96 0 a0.48 0.48 0 1 0 -0.96 0Z M21.02 3.5 a0.48 0.48 0 1 0 0.96 0 a0.48 0.48 0 1 0 -0.96 0Z M23.02 3.5 a0.48 0.48 0 1 0 0.96 0 a0.48 0.48 0 1 0 -0.96 0Z M25.02 3.5 a0.48 0.48 0 1 0 0.96 0 a0.48 0.48 0 1 0 -0.96 0Z M26.02 3.5 a0.48 0.48 0 1 0 0.96 0 a0.48 0.48 0 1 0 -0.96 0Z M30 3 h1 v1 h-1Z M32 3 h1 v1 h-1Z M33 3 h1 v1 h-1Z M34 3 h1 v1 h-1Z M36 3 h1 v1 h-1Z M0 4 h1 v1 h-1Z M2 4 h1 v1 h-1Z M3 4 h1 v1 h-1Z M4 4 h1 v1 h-1Z M6 4 h1 v1 h-1Z M8.02 4.5 a0.48 0.48 0 1 0 0.96 0 a0.48 0.48 0 1 0 -0.96 0Z M9.02 4.5 a0.48 0.48 0 1 0 0.96 0 a0.48 0.48 0 1 0 -0.96 0Z M15.02 4.5 a0.48 0.48 0 1 0 0.96 0 a0.48 0.48 0 1 0 -0.96 0Z M18.02 4.5 a0.48 0.48 0 1 0 0.96 0 a0.48 0.48 0 1 0 -0.96 0Z M19.02 4.5 a0.48 0.48 0 1 0 0.96 0 a0.48 0.48 0 1 0 -0.96 0Z M21.02 4.5 a0.48 0.48 0 1 0 0.96 0 a0.48 0.48 0 1 0 -0.96 0Z M22.02 4.5 a0.48 0.48 0 1 0 0.96 0 a0.48 0.48 0 1 0 -0.96 0Z M23.02 4.5 a0.48 0.48 0 1 0 0.96 0 a0.48 0.48 0 1 0 -0.96 0Z M26.02 4.5 a0.48 0.48 0 1 0 0.96 0 a0.48 0.48 0 1 0 -0.96 0Z M27.02 4.5 a0.48 0.48 0 1 0 0.96 0 a0.48 0.48 0 1 0 -0.96 0Z
M30 4 h1 v1 h-1Z M32 4 h1 v1 h-1Z M33 4 h1 v1 h-1Z M34 4 h1 v1 h-1Z M36 4 h1 v1 h-1Z M0 5 h1 v1 h-1Z M6 5 h1 v1 h-1Z M13.02 5.5 a0.48 0.48 0 1 0 0.96 0 a0.48 0.48 0 1 0 -0.96 0Z M19.02 5.5 a0.48 0.48 0 1 0 0.96 0 a0.48 0.48 0 1 0 -0.96 0Z M21.02 5.5 a0.48 0.48 0 1 0 0.96 0 a0.48 0.48 0 1 0 -0.96 0Z M22.02 5.5 a0.48 0.48 0 1 0 0.96 0 a0.48 0.48 0 1 0 -0.96 0Z M25.02 5.5 a0.48 0.48 0 1 0 0.96 0 a0.48 0.48 0 1 0 -0.96 0Z M30 5 h1 v1 h-1Z M36 5 h1 v1 h-1Z M0 6 h1 v1 h-1Z M1 6 h1 v1 h-1Z M2 6 h1 v1 h-1Z M3 6 h1 v1 h-1Z M4 6 h1 v1 h-1Z M5 6 h1 v1 h-1Z M6 6 h1 v1 h-1Z M8.02 6.5 a0.48 0.48 0 1 0 0.96 0 a0.48 0.48 0 1 0 -0.96 0Z M10.02 6.5 a0.48 0.48 0 1 0 0.96 0 a0.48 0.48 0 1 0 -0.96 0Z M12.02 6.5 a0.48 0.48 0 1 0 0.96 0 a0.48 0.48 0 1 0 -0.96 0Z M14.02 6.5 a0.48 0.48 0 1 0 0.96 0 a0.48 0.48 0 1 0 -0.96 0Z M16.02 6.5 a0.48 0.48 0 1 0 0.96 0 a0.48 0.48 0 1 0 -0.96 0Z M18.02 6.5 a0.48 0.48 0 1 0 0.96 0 a0.48 0.48 0 1 0 -0.96 0Z M20.02 6.5 a0.48 0.48 0 1 0 0.96 0 a0.48 0.48 0 1 0 -0.96 0Z M22.02 6.5 a0.48 0.48 0 1 0 0.96 0 a0.48 0.48 0 1 0 -0.96 0Z M24.02 6.5 a0.48 0.48 0 1 0 0.96 0 a0.48 0.48 0 1 0 -0.96 0Z M26.02 6.5 a0.48 0.48 0 1 0 0.96 0 a0.48 0.48 0 1 0 -0.96 0Z M28.02 6.5 a0.48 0.48 0 1 0 0.96 0 a0.48 0.48 0 1 0 -0.96 0Z M30 6 h1 v1 h-1Z M31 6 h1 v1 h-1Z M32 6 h1 v1 h-1Z M33 6 h1 v1 h-1Z M34 6 h1 v1 h-1Z M35 6 h1 v1 h-1Z M36 6 h1 v1 h-1Z M8.02 7.5 a0.48 0.48 0 1 0 0.96 0 a0.48 0.48 0 1 0 -0.96 0Z M9.02 7.5 a0.48 0.48 0 1 0 0.96 0 a0.48 0.48 0 1 0 -0.96 0Z M13.02 7.5 a0.48 0.48 0 1 0 0.96 0 a0.48 0.48 0 1 0 -0.96 0Z M15.02 7.5 a0.48 0.48 0 1 0 0.96 0 a0.48 0.48 0 1 0 -0.96 0Z M16.02 7.5 a0.48 0.48 0 1 0 0.96 0 a0.48 0.48 0 1 0 -0.96 0Z M18.02 7.5 a0.48 0.48 0 1 0 0.96 0 a0.48 0.48 0 1 0 -0.96 0Z M19.02 7.5 a0.48 0.48 0 1 0 0.96 0 a0.48 0.48 0 1 0 -0.96 0Z M22.02 7.5 a0.48 0.48 0 1 0 0.96 0 a0.48 0.48 0 1 0 -0.96 0Z M24.02 7.5 a0.48 0.48 0 1 0 0.96 0 a0.48 0.48 0 1 0 -0.96 0Z M27.02 7.5 a0.48 0.48 0 1 0 0.96 0 a0.48 0.48 0 1 0 -0.96 0Z M28.02 7.5 a0.48 0.48 0 1 0 0.96 0 a0.48 0.48 0 1 0 -0.96 0Z M2.02 8.5 a0.48 0.48 0 1 0 0.96 0 a0.48 0.48 0 1 0 -0.96 0Z M3.02 8.5 a0.48 0.48 0 1 0 0.96 0 a0.48 0.48 0 1 0 -0.96 0Z M6.02 8.5 a0.48 0.48 0 1 0 0.96 0 a0.48 0.48 0 1 0 -0.96 0Z M7.02 8.5 a0.48 0.48 0 1 0 0.96 0 a0.48 0.48 0 1 0 -0.96 0Z M8.02 8.5 a0.48 0.48 0 1 0 0.96 0 a0.48 0.48 0 1 0 -0.96 0Z M10.02 8.5 a0.48 0.48 0 1 0 0.96 0 a0.48 0.48 0 1 0 -0.96 0Z M13.02 8.5 a0.48 0.48 0 1 0 0.96 0 a0.48 0.48 0 1 0 -0.96 0Z M14.02 8.5 a0.48 0.48 0 1 0 0.96 0 a0.48 0.48 0 1 0 -0.96 0Z M16.02 8.5 a0.48 0.48 0 1 0 0.96 0 a0.48 0.48 0 1 0 -0.96 0Z M18.02 8.5 a0.48 0.48 0 1 0 0.96 0 a0.48 0.48 0 1 0 -0.96 0Z M20.02 8.5 a0.48 0.48 0 1 0 0.96 0 a0.48 0.48 0 1 0 -0.96 0Z M21.02 8.5 a0.48 0.48 0 1 0 0.96 0 a0.48 0.48 0 1 0 -0.96 0Z M23.02 8.5 a0.48 0.48 0 1 0 0.96 0 a0.48 0.48 0 1 0 -0.96 0Z M25.02 8.5 a0.48 0.48 0 1 0 0.96 0 a0.48 0.48 0 1 0 -0.96 0Z M27.02 8.5 a0.48 0.48 0 1 0 0.96 0 a0.48 0.48 0 1 0 -0.96 0Z M28.02 8.5 a0.48 0.48 0 1 0 0.96 0 a0.48 0.48 0 1 0 -0.96 0Z M29.02 8.5 a0.48 0.48 0 1 0 0.96 0 a0.48 0.48 0 1 0 -0.96 0Z M30.02 8.5 a0.48 0.48 0 1 0 0.96 0 a0.48 0.48 0 1 0 -0.96 0Z M32.02 8.5 a0.48 0.48 0 1 0 0.96 0 a0.48 0.48 0 1 0 -0.96 0Z M0.02 9.5 a0.48 0.48 0 1 0 0.96 0 a0.48 0.48 0 1 0 -0.96 0Z M2.02 9.5 a0.48 0.48 0 1 0 0.96 0 a0.48 0.48 0 1 0 -0.96 0Z M10.02 9.5 a0.48 0.48 0 1 0 0.96 0 a0.48 0.48 0 1 0 -0.96 0Z M12.02 9.5 a0.48 0.48 0 1 0 0.96 0 a0.48 0.48 0 1 0 -0.96 0Z M13.02 9.5 a0.48 0.48 0 1 0 0.96 0 a0.48 0.48 0 1 0 -0.96 0Z M16.02 9.5 a0.48 0.48 0 1 0 0.96 0 a0.48 0.48 0 1 0 -0.96 0Z M19.02 9.5 a0.48 0.48 0 1 0 0.96 0 a0.48 0.48 0 1 0 -0.96 0Z M20.02 9.5 a0.48 0.48 0 1 0 0.96 0 a0.48 0.48 0 1 0 -0.96 0Z M23.02 9.5 a0.48 0.48 0 1 0 0.96 0 a0.48 0.48 0 1 0 -0.96 0Z M24.02 9.5 a0.48 0.48 0 1 0 0.96 0 a0.48 0.48 0 1 0 -0.96 0Z M25.02 9.5 a0.48 0.48 0 1 0 0.96 0 a0.48 0.48 0 1 0 -0.96 0Z M26.02 9.5 a0.48 0.48 0 1 0 0.96 0 a0.48 0.48 0 1 0 -0.96 0Z M27.02 9.5 a0.48 0.48 0 1 0 0.96 0 a0.48 0.48 0 1 0 -0.96 0Z M28.02 9.5 a0.48 0.48 0 1 0 0.96 0 a0.48 0.48 0 1 0 -0.96 0Z M29.02 9.5 a0.48 0.48 0 1 0 0.96 0 a0.48 0.48 0 1 0 -0.96 0Z M30.02 9.5 a0.48 0.48 0 1 0 0.96 0 a0.48 0.48 0 1 0 -0.96 0Z M34.02 9.5 a0.48 0.48 0 1 0 0.96 0 a0.48 0.48 0 1 0 -0.96 0Z M4.02 10.5 a0.48 0.48 0 1 0 0.96 0 a0.48 0.48 0 1 0 -0.96 0Z M6.02 10.5 a0.48 0.48 0 1 0 0.96 0 a0.48 0.48 0 1 0 -0.96 0Z M7.02 10.5 a0.48 0.48 0 1 0 0.96 0 a0.48 0.48 0 1 0 -0.96 0Z M12.02 10.5 a0.48 0.48 0 1 0 0.96 0 a0.48 0.48 0 1 0 -0.96 0Z M13.02 10.5 a0.48 0.48 0 1 0 0.96 0 a0.48 0.48 0 1 0 -0.96 0Z M14.02 10.5 a0.48 0.48 0 1 0 0.96 0 a0.48 0.48 0 1 0 -0.96 0Z M17.02 10.5 a0.48 0.48 0 1 0 0.96 0 a0.48 0.48 0 1 0 -0.96 0Z M18.02 10.5 a0.48 0.48 0 1 0 0.96 0 a0.48 0.48 0 1 0 -0.96 0Z M19.02 10.5 a0.48 0.48 0 1 0 0.96 0 a0.48 0.48 0 1 0 -0.96 0Z M21.02 10.5 a0.48 0.48 0 1 0 0.96 0 a0.48 0.48 0 1 0 -0.96 0Z M25.02 10.5 a0.48 0.48 0 1 0 0.96 0 a0.48 0.48 0 1 0 -0.96 0Z M27.02 10.5 a0.48 0.48 0 1 0 0.96 0 a0.48 0.48 0 1 0 -0.96 0Z M29.02 10.5 a0.48 0.48 0 1 0 0.96 0 a0.48 0.48 0 1 0 -0.96 0Z M31.02 10.5 a0.48 0.48 0 1 0 0.96 0 a0.48 0.48 0 1 0 -0.96 0Z
M32.02 10.5 a0.48 0.48 0 1 0 0.96 0 a0.48 0.48 0 1 0 -0.96 0Z M34.02 10.5 a0.48 0.48 0 1 0 0.96 0 a0.48 0.48 0 1 0 -0.96 0Z M1.02 11.5 a0.48 0.48 0 1 0 0.96 0 a0.48 0.48 0 1 0 -0.96 0Z M4.02 11.5 a0.48 0.48 0 1 0 0.96 0 a0.48 0.48 0 1 0 -0.96 0Z M5.02 11.5 a0.48 0.48 0 1 0 0.96 0 a0.48 0.48 0 1 0 -0.96 0Z M9.02 11.5 a0.48 0.48 0 1 0 0.96 0 a0.48 0.48 0 1 0 -0.96 0Z M13.02 11.5 a0.48 0.48 0 1 0 0.96 0 a0.48 0.48 0 1 0 -0.96 0Z M15.02 11.5 a0.48 0.48 0 1 0 0.96 0 a0.48 0.48 0 1 0 -0.96 0Z M17.02 11.5 a0.48 0.48 0 1 0 0.96 0 a0.48 0.48 0 1 0 -0.96 0Z M18.02 11.5 a0.48 0.48 0 1 0 0.96 0 a0.48 0.48 0 1 0 -0.96 0Z M21.02 11.5 a0.48 0.48 0 1 0 0.96 0 a0.48 0.48 0 1 0 -0.96 0Z M23.02 11.5 a0.48 0.48 0 1 0 0.96 0 a0.48 0.48 0 1 0 -0.96 0Z M25.02 11.5 a0.48 0.48 0 1 0 0.96 0 a0.48 0.48 0 1 0 -0.96 0Z M26.02 11.5 a0.48 0.48 0 1 0 0.96 0 a0.48 0.48 0 1 0 -0.96 0Z M27.02 11.5 a0.48 0.48 0 1 0 0.96 0 a0.48 0.48 0 1 0 -0.96 0Z M31.02 11.5 a0.48 0.48 0 1 0 0.96 0 a0.48 0.48 0 1 0 -0.96 0Z M33.02 11.5 a0.48 0.48 0 1 0 0.96 0 a0.48 0.48 0 1 0 -0.96 0Z M35.02 11.5 a0.48 0.48 0 1 0 0.96 0 a0.48 0.48 0 1 0 -0.96 0Z M0.02 12.5 a0.48 0.48 0 1 0 0.96 0 a0.48 0.48 0 1 0 -0.96 0Z M1.02 12.5 a0.48 0.48 0 1 0 0.96 0 a0.48 0.48 0 1 0 -0.96 0Z M3.02 12.5 a0.48 0.48 0 1 0 0.96 0 a0.48 0.48 0 1 0 -0.96 0Z M4.02 12.5 a0.48 0.48 0 1 0 0.96 0 a0.48 0.48 0 1 0 -0.96 0Z M5.02 12.5 a0.48 0.48 0 1 0 0.96 0 a0.48 0.48 0 1 0 -0.96 0Z M6.02 12.5 a0.48 0.48 0 1 0 0.96 0 a0.48 0.48 0 1 0 -0.96 0Z M10.02 12.5 a0.48 0.48 0 1 0 0.96 0 a0.48 0.48 0 1 0 -0.96 0Z M12.02 12.5 a0.48 0.48 0 1 0 0.96 0 a0.48 0.48 0 1 0 -0.96 0Z M13.02 12.5 a0.48 0.48 0 1 0 0.96 0 a0.48 0.48 0 1 0 -0.96 0Z M16.02 12.5 a0.48 0.48 0 1 0 0.96 0 a0.48 0.48 0 1 0 -0.96 0Z M17.02 12.5 a0.48 0.48 0 1 0 0.96 0 a0.48 0.48 0 1 0 -0.96 0Z M21.02 12.5 a0.48 0.48 0 1 0 0.96 0 a0.48 0.48 0 1 0 -0.96 0Z M23.02 12.5 a0.48 0.48 0 1 0 0.96 0 a0.48 0.48 0 1 0 -0.96 0Z M24.02 12.5 a0.48 0.48 0 1 0 0.96 0 a0.48 0.48 0 1 0 -0.96 0Z M25.02 12.5 a0.48 0.48 0 1 0 0.96 0 a0.48 0.48 0 1 0 -0.96 0Z M26.02 12.5 a0.48 0.48 0 1 0 0.96 0 a0.48 0.48 0 1 0 -0.96 0Z M29.02 12.5 a0.48 0.48 0 1 0 0.96 0 a0.48 0.48 0 1 0 -0.96 0Z M30.02 12.5 a0.48 0.48 0 1 0 0.96 0 a0.48 0.48 0 1 0 -0.96 0Z M32.02 12.5 a0.48 0.48 0 1 0 0.96 0 a0.48 0.48 0 1 0 -0.96 0Z M33.02 12.5 a0.48 0.48 0 1 0 0.96 0 a0.48 0.48 0 1 0 -0.96 0Z M0.02 13.5 a0.48 0.48 0 1 0 0.96 0 a0.48 0.48 0 1 0 -0.96 0Z M2.02 13.5 a0.48 0.48 0 1 0 0.96 0 a0.48 0.48 0 1 0 -0.96 0Z M5.02 13.5 a0.48 0.48 0 1 0 0.96 0 a0.48 0.48 0 1 0 -0.96 0Z M11.02 13.5 a0.48 0.48 0 1 0 0.96 0 a0.48 0.48 0 1 0 -0.96 0Z M15.02 13.5 a0.48 0.48 0 1 0 0.96 0 a0.48 0.48 0 1 0 -0.96 0Z M16.02 13.5 a0.48 0.48 0 1 0 0.96 0 a0.48 0.48 0 1 0 -0.96 0Z M19.02 13.5 a0.48 0.48 0 1 0 0.96 0 a0.48 0.48 0 1 0 -0.96 0Z M20.02 13.5 a0.48 0.48 0 1 0 0.96 0 a0.48 0.48 0 1 0 -0.96 0Z M22.02 13.5 a0.48 0.48 0 1 0 0.96 0 a0.48 0.48 0 1 0 -0.96 0Z M23.02 13.5 a0.48 0.48 0 1 0 0.96 0 a0.48 0.48 0 1 0 -0.96 0Z M27.02 13.5 a0.48 0.48 0 1 0 0.96 0 a0.48 0.48 0 1 0 -0.96 0Z M28.02 13.5 a0.48 0.48 0 1 0 0.96 0 a0.48 0.48 0 1 0 -0.96 0Z M30.02 13.5 a0.48 0.48 0 1 0 0.96 0 a0.48 0.48 0 1 0 -0.96 0Z M31.02 13.5 a0.48 0.48 0 1 0 0.96 0 a0.48 0.48 0 1 0 -0.96 0Z M32.02 13.5 a0.48 0.48 0 1 0 0.96 0 a0.48 0.48 0 1 0 -0.96 0Z M34.02 13.5 a0.48 0.48 0 1 0 0.96 0 a0.48 0.48 0 1 0 -0.96 0Z M36.02 13.5 a0.48 0.48 0 1 0 0.96 0 a0.48 0.48 0 1 0 -0.96 0Z M0.02 14.5 a0.48 0.48 0 1 0 0.96 0 a0.48 0.48 0 1 0 -0.96 0Z M1.02 14.5 a0.48 0.48 0 1 0 0.96 0 a0.48 0.48 0 1 0 -0.96 0Z M2.02 14.5 a0.48 0.48 0 1 0 0.96 0 a0.48 0.48 0 1 0 -0.96 0Z M4.02 14.5 a0.48 0.48 0 1 0 0.96 0 a0.48 0.48 0 1 0 -0.96 0Z M6.02 14.5 a0.48 0.48 0 1 0 0.96 0 a0.48 0.48 0 1 0 -0.96 0Z M9.02 14.5 a0.48 0.48 0 1 0 0.96 0 a0.48 0.48 0 1 0 -0.96 0Z M13.02 14.5 a0.48 0.48 0 1 0 0.96 0 a0.48 0.48 0 1 0 -0.96 0Z M25.02 14.5 a0.48 0.48 0 1 0 0.96 0 a0.48 0.48 0 1 0 -0.96 0Z M26.02 14.5 a0.48 0.48 0 1 0 0.96 0 a0.48 0.48 0 1 0 -0.96 0Z M29.02 14.5 a0.48 0.48 0 1 0 0.96 0 a0.48 0.48 0 1 0 -0.96 0Z M30.02 14.5 a0.48 0.48 0 1 0 0.96 0 a0.48 0.48 0 1 0 -0.96 0Z M31.02 14.5 a0.48 0.48 0 1 0 0.96 0 a0.48 0.48 0 1 0 -0.96 0Z M32.02 14.5 a0.48 0.48 0 1 0 0.96 0 a0.48 0.48 0 1 0 -0.96 0Z M34.02 14.5 a0.48 0.48 0 1 0 0.96 0 a0.48 0.48 0 1 0 -0.96 0Z M35.02 14.5 a0.48 0.48 0 1 0 0.96 0 a0.48 0.48 0 1 0 -0.96 0Z M0.02 15.5 a0.48 0.48 0 1 0 0.96 0 a0.48 0.48 0 1 0 -0.96 0Z M1.02 15.5 a0.48 0.48 0 1 0 0.96 0 a0.48 0.48 0 1 0 -0.96 0Z M4.02 15.5 a0.48 0.48 0 1 0 0.96 0 a0.48 0.48 0 1 0 -0.96 0Z M7.02 15.5 a0.48 0.48 0 1 0 0.96 0 a0.48 0.48 0 1 0 -0.96 0Z M10.02 15.5 a0.48 0.48 0 1 0 0.96 0 a0.48 0.48 0 1 0 -0.96 0Z M12.02 15.5 a0.48 0.48 0 1 0 0.96 0 a0.48 0.48 0 1 0 -0.96 0Z M23.02 15.5 a0.48 0.48 0 1 0 0.96 0 a0.48 0.48 0 1 0 -0.96 0Z M24.02 15.5 a0.48 0.48 0 1 0 0.96 0 a0.48 0.48 0 1 0 -0.96 0Z M27.02 15.5 a0.48 0.48 0 1 0 0.96 0 a0.48 0.48 0 1 0 -0.96 0Z M28.02 15.5 a0.48 0.48 0 1 0 0.96 0 a0.48 0.48 0 1 0 -0.96 0Z M35.02 15.5 a0.48 0.48 0 1 0 0.96 0 a0.48 0.48 0 1 0 -0.96 0Z M36.02 15.5 a0.48 0.48 0 1 0 0.96 0 a0.48 0.48 0 1 0 -0.96 0Z M0.02 16.5 a0.48 0.48 0 1 0 0.96 0 a0.48 0.48 0 1 0 -0.96 0Z M2.02 16.5 a0.48 0.48 0 1 0 0.96 0 a0.48 0.48 0 1 0 -0.96 0Z M5.02 16.5 a0.48 0.48 0 1 0 0.96 0 a0.48 0.48 0 1 0 -0.96 0Z M6.02 16.5 a0.48 0.48 0 1 0 0.96 0 a0.48 0.48 0 1 0 -0.96 0Z M11.02 16.5 a0.48 0.48 0 1 0 0.96 0 a0.48 0.48 0 1 0 -0.96 0Z M13.02 16.5 a0.48 0.48 0 1 0 0.96 0 a0.48 0.48 0 1 0 -0.96 0Z M25.02 16.5 a0.48 0.48 0 1 0 0.96 0 a0.48 0.48 0 1 0 -0.96 0Z M33.02 16.5 a0.48 0.48 0 1 0 0.96 0 a0.48 0.48 0 1 0 -0.96 0Z M34.02 16.5 a0.48 0.48 0 1 0 0.96 0 a0.48 0.48 0 1 0 -0.96 0Z M0.02 17.5 a0.48 0.48 0 1 0 0.96 0 a0.48 0.48 0 1 0 -0.96 0Z M4.02 17.5 a0.48 0.48 0 1 0 0.96 0 a0.48 0.48 0 1 0 -0.96 0Z M5.02 17.5 a0.48 0.48 0 1 0 0.96 0 a0.48 0.48 0 1 0 -0.96 0Z M7.02 17.5 a0.48 0.48 0 1 0 0.96 0 a0.48 0.48 0 1 0 -0.96 0Z M8.02 17.5 a0.48 0.48 0 1 0 0.96 0 a0.48 0.48 0 1 0 -0.96 0Z M9.02 17.5 a0.48 0.48 0 1 0 0.96 0 a0.48 0.48 0 1 0 -0.96 0Z M10.02 17.5 a0.48 0.48 0 1 0 0.96 0 a0.48 0.48 0 1 0 -0.96 0Z M23.02 17.5 a0.48 0.48 0 1 0 0.96 0 a0.48 0.48 0 1 0 -0.96 0Z M24.02 17.5 a0.48 0.48 0 1 0 0.96 0 a0.48 0.48 0 1 0 -0.96 0Z
M27.02 17.5 a0.48 0.48 0 1 0 0.96 0 a0.48 0.48 0 1 0 -0.96 0Z M28.02 17.5 a0.48 0.48 0 1 0 0.96 0 a0.48 0.48 0 1 0 -0.96 0Z M30.02 17.5 a0.48 0.48 0 1 0 0.96 0 a0.48 0.48 0 1 0 -0.96 0Z M31.02 17.5 a0.48 0.48 0 1 0 0.96 0 a0.48 0.48 0 1 0 -0.96 0Z M34.02 17.5 a0.48 0.48 0 1 0 0.96 0 a0.48 0.48 0 1 0 -0.96 0Z M36.02 17.5 a0.48 0.48 0 1 0 0.96 0 a0.48 0.48 0 1 0 -0.96 0Z M1.02 18.5 a0.48 0.48 0 1 0 0.96 0 a0.48 0.48 0 1 0 -0.96 0Z M3.02 18.5 a0.48 0.48 0 1 0 0.96 0 a0.48 0.48 0 1 0 -0.96 0Z M6.02 18.5 a0.48 0.48 0 1 0 0.96 0 a0.48 0.48 0 1 0 -0.96 0Z M7.02 18.5 a0.48 0.48 0 1 0 0.96 0 a0.48 0.48 0 1 0 -0.96 0Z M8.02 18.5 a0.48 0.48 0 1 0 0.96 0 a0.48 0.48 0 1 0 -0.96 0Z M12.02 18.5 a0.48 0.48 0 1 0 0.96 0 a0.48 0.48 0 1 0 -0.96 0Z M13.02 18.5 a0.48 0.48 0 1 0 0.96 0 a0.48 0.48 0 1 0 -0.96 0Z M23.02 18.5 a0.48 0.48 0 1 0 0.96 0 a0.48 0.48 0 1 0 -0.96 0Z M24.02 18.5 a0.48 0.48 0 1 0 0.96 0 a0.48 0.48 0 1 0 -0.96 0Z M26.02 18.5 a0.48 0.48 0 1 0 0.96 0 a0.48 0.48 0 1 0 -0.96 0Z M27.02 18.5 a0.48 0.48 0 1 0 0.96 0 a0.48 0.48 0 1 0 -0.96 0Z M28.02 18.5 a0.48 0.48 0 1 0 0.96 0 a0.48 0.48 0 1 0 -0.96 0Z M31.02 18.5 a0.48 0.48 0 1 0 0.96 0 a0.48 0.48 0 1 0 -0.96 0Z M33.02 18.5 a0.48 0.48 0 1 0 0.96 0 a0.48 0.48 0 1 0 -0.96 0Z M35.02 18.5 a0.48 0.48 0 1 0 0.96 0 a0.48 0.48 0 1 0 -0.96 0Z M36.02 18.5 a0.48 0.48 0 1 0 0.96 0 a0.48 0.48 0 1 0 -0.96 0Z M0.02 19.5 a0.48 0.48 0 1 0 0.96 0 a0.48 0.48 0 1 0 -0.96 0Z M1.02 19.5 a0.48 0.48 0 1 0 0.96 0 a0.48 0.48 0 1 0 -0.96 0Z M2.02 19.5 a0.48 0.48 0 1 0 0.96 0 a0.48 0.48 0 1 0 -0.96 0Z M3.02 19.5 a0.48 0.48 0 1 0 0.96 0 a0.48 0.48 0 1 0 -0.96 0Z M5.02 19.5 a0.48 0.48 0 1 0 0.96 0 a0.48 0.48 0 1 0 -0.96 0Z M8.02 19.5 a0.48 0.48 0 1 0 0.96 0 a0.48 0.48 0 1 0 -0.96 0Z M9.02 19.5 a0.48 0.48 0 1 0 0.96 0 a0.48 0.48 0 1 0 -0.96 0Z M10.02 19.5 a0.48 0.48 0 1 0 0.96 0 a0.48 0.48 0 1 0 -0.96 0Z M13.02 19.5 a0.48 0.48 0 1 0 0.96 0 a0.48 0.48 0 1 0 -0.96 0Z M23.02 19.5 a0.48 0.48 0 1 0 0.96 0 a0.48 0.48 0 1 0 -0.96 0Z M26.02 19.5 a0.48 0.48 0 1 0 0.96 0 a0.48 0.48 0 1 0 -0.96 0Z M28.02 19.5 a0.48 0.48 0 1 0 0.96 0 a0.48 0.48 0 1 0 -0.96 0Z M33.02 19.5 a0.48 0.48 0 1 0 0.96 0 a0.48 0.48 0 1 0 -0.96 0Z M3.02 20.5 a0.48 0.48 0 1 0 0.96 0 a0.48 0.48 0 1 0 -0.96 0Z M4.02 20.5 a0.48 0.48 0 1 0 0.96 0 a0.48 0.48 0 1 0 -0.96 0Z M6.02 20.5 a0.48 0.48 0 1 0 0.96 0 a0.48 0.48 0 1 0 -0.96 0Z M11.02 20.5 a0.48 0.48 0 1 0 0.96 0 a0.48 0.48 0 1 0 -0.96 0Z M13.02 20.5 a0.48 0.48 0 1 0 0.96 0 a0.48 0.48 0 1 0 -0.96 0Z M24.02 20.5 a0.48 0.48 0 1 0 0.96 0 a0.48 0.48 0 1 0 -0.96 0Z M28.02 20.5 a0.48 0.48 0 1 0 0.96 0 a0.48 0.48 0 1 0 -0.96 0Z M29.02 20.5 a0.48 0.48 0 1 0 0.96 0 a0.48 0.48 0 1 0 -0.96 0Z M32.02 20.5 a0.48 0.48 0 1 0 0.96 0 a0.48 0.48 0 1 0 -0.96 0Z M0.02 21.5 a0.48 0.48 0 1 0 0.96 0 a0.48 0.48 0 1 0 -0.96 0Z M1.02 21.5 a0.48 0.48 0 1 0 0.96 0 a0.48 0.48 0 1 0 -0.96 0Z M8.02 21.5 a0.48 0.48 0 1 0 0.96 0 a0.48 0.48 0 1 0 -0.96 0Z M9.02 21.5 a0.48 0.48 0 1 0 0.96 0 a0.48 0.48 0 1 0 -0.96 0Z M12.02 21.5 a0.48 0.48 0 1 0 0.96 0 a0.48 0.48 0 1 0 -0.96 0Z M13.02 21.5 a0.48 0.48 0 1 0 0.96 0 a0.48 0.48 0 1 0 -0.96 0Z M23.02 21.5 a0.48 0.48 0 1 0 0.96 0 a0.48 0.48 0 1 0 -0.96 0Z M24.02 21.5 a0.48 0.48 0 1 0 0.96 0 a0.48 0.48 0 1 0 -0.96 0Z M25.02 21.5 a0.48 0.48 0 1 0 0.96 0 a0.48 0.48 0 1 0 -0.96 0Z M26.02 21.5 a0.48 0.48 0 1 0 0.96 0 a0.48 0.48 0 1 0 -0.96 0Z M29.02 21.5 a0.48 0.48 0 1 0 0.96 0 a0.48 0.48 0 1 0 -0.96 0Z M31.02 21.5 a0.48 0.48 0 1 0 0.96 0 a0.48 0.48 0 1 0 -0.96 0Z M34.02 21.5 a0.48 0.48 0 1 0 0.96 0 a0.48 0.48 0 1 0 -0.96 0Z M36.02 21.5 a0.48 0.48 0 1 0 0.96 0 a0.48 0.48 0 1 0 -0.96 0Z M1.02 22.5 a0.48 0.48 0 1 0 0.96 0 a0.48 0.48 0 1 0 -0.96 0Z M2.02 22.5 a0.48 0.48 0 1 0 0.96 0 a0.48 0.48 0 1 0 -0.96 0Z M3.02 22.5 a0.48 0.48 0 1 0 0.96 0 a0.48 0.48 0 1 0 -0.96 0Z M4.02 22.5 a0.48 0.48 0 1 0 0.96 0 a0.48 0.48 0 1 0 -0.96 0Z M6.02 22.5 a0.48 0.48 0 1 0 0.96 0 a0.48 0.48 0 1 0 -0.96 0Z M7.02 22.5 a0.48 0.48 0 1 0 0.96 0 a0.48 0.48 0 1 0 -0.96 0Z M9.02 22.5 a0.48 0.48 0 1 0 0.96 0 a0.48 0.48 0 1 0 -0.96 0Z M11.02 22.5 a0.48 0.48 0 1 0 0.96 0 a0.48 0.48 0 1 0 -0.96 0Z M13.02 22.5 a0.48 0.48 0 1 0 0.96 0 a0.48 0.48 0 1 0 -0.96 0Z M23.02 22.5 a0.48 0.48 0 1 0 0.96 0 a0.48 0.48 0 1 0 -0.96 0Z M24.02 22.5 a0.48 0.48 0 1 0 0.96 0 a0.48 0.48 0 1 0 -0.96 0Z M25.02 22.5 a0.48 0.48 0 1 0 0.96 0 a0.48 0.48 0 1 0 -0.96 0Z M30.02 22.5 a0.48 0.48 0 1 0 0.96 0 a0.48 0.48 0 1 0 -0.96 0Z M32.02 22.5 a0.48 0.48 0 1 0 0.96 0 a0.48 0.48 0 1 0 -0.96 0Z M34.02 22.5 a0.48 0.48 0 1 0 0.96 0 a0.48 0.48 0 1 0 -0.96 0Z M35.02 22.5 a0.48 0.48 0 1 0 0.96 0 a0.48 0.48 0 1 0 -0.96 0Z M0.02 23.5 a0.48 0.48 0 1 0 0.96 0 a0.48 0.48 0 1 0 -0.96 0Z M4.02 23.5 a0.48 0.48 0 1 0 0.96 0 a0.48 0.48 0 1 0 -0.96 0Z M5.02 23.5 a0.48 0.48 0 1 0 0.96 0 a0.48 0.48 0 1 0 -0.96 0Z M8.02 23.5 a0.48 0.48 0 1 0 0.96 0 a0.48 0.48 0 1 0 -0.96 0Z M11.02 23.5 a0.48 0.48 0 1 0 0.96 0 a0.48 0.48 0 1 0 -0.96 0Z M12.02 23.5 a0.48 0.48 0 1 0 0.96 0 a0.48 0.48 0 1 0 -0.96 0Z M13.02 23.5 a0.48 0.48 0 1 0 0.96 0 a0.48 0.48 0 1 0 -0.96 0Z M14.02 23.5 a0.48 0.48 0 1 0 0.96 0 a0.48 0.48 0 1 0 -0.96 0Z M16.02 23.5 a0.48 0.48 0 1 0 0.96 0 a0.48 0.48 0 1 0 -0.96 0Z M20.02 23.5 a0.48 0.48 0 1 0 0.96 0 a0.48 0.48 0 1 0 -0.96 0Z M22.02 23.5 a0.48 0.48 0 1 0 0.96 0 a0.48 0.48 0 1 0 -0.96 0Z M27.02 23.5 a0.48 0.48 0 1 0 0.96 0 a0.48 0.48 0 1 0 -0.96 0Z M28.02 23.5 a0.48 0.48 0 1 0 0.96 0 a0.48 0.48 0 1 0 -0.96 0Z M30.02 23.5 a0.48 0.48 0 1 0 0.96 0 a0.48 0.48 0 1 0 -0.96 0Z M33.02 23.5 a0.48 0.48 0 1 0 0.96 0 a0.48 0.48 0 1 0 -0.96 0Z M34.02 23.5 a0.48 0.48 0 1 0 0.96 0 a0.48 0.48 0 1 0 -0.96 0Z M35.02 23.5 a0.48 0.48 0 1 0 0.96 0 a0.48 0.48 0 1 0 -0.96 0Z M36.02 23.5 a0.48 0.48 0 1 0 0.96 0 a0.48 0.48 0 1 0 -0.96 0Z M4.02 24.5 a0.48 0.48 0 1 0 0.96 0 a0.48 0.48 0 1 0 -0.96 0Z M5.02 24.5 a0.48 0.48 0 1 0 0.96 0 a0.48 0.48 0 1 0 -0.96 0Z M6.02 24.5 a0.48 0.48 0 1 0 0.96 0 a0.48 0.48 0 1 0 -0.96 0Z M7.02 24.5 a0.48 0.48 0 1 0 0.96 0 a0.48 0.48 0 1 0 -0.96 0Z M8.02 24.5 a0.48 0.48 0 1 0 0.96 0 a0.48 0.48 0 1 0 -0.96 0Z M13.02 24.5 a0.48 0.48 0 1 0 0.96 0 a0.48 0.48 0 1 0 -0.96 0Z M19.02 24.5 a0.48 0.48 0 1 0 0.96 0 a0.48 0.48 0 1 0 -0.96 0Z M22.02 24.5 a0.48 0.48 0 1 0 0.96 0 a0.48 0.48 0 1 0 -0.96 0Z
M23.02 24.5 a0.48 0.48 0 1 0 0.96 0 a0.48 0.48 0 1 0 -0.96 0Z M24.02 24.5 a0.48 0.48 0 1 0 0.96 0 a0.48 0.48 0 1 0 -0.96 0Z M26.02 24.5 a0.48 0.48 0 1 0 0.96 0 a0.48 0.48 0 1 0 -0.96 0Z M28.02 24.5 a0.48 0.48 0 1 0 0.96 0 a0.48 0.48 0 1 0 -0.96 0Z M29.02 24.5 a0.48 0.48 0 1 0 0.96 0 a0.48 0.48 0 1 0 -0.96 0Z M33.02 24.5 a0.48 0.48 0 1 0 0.96 0 a0.48 0.48 0 1 0 -0.96 0Z M34.02 24.5 a0.48 0.48 0 1 0 0.96 0 a0.48 0.48 0 1 0 -0.96 0Z M36.02 24.5 a0.48 0.48 0 1 0 0.96 0 a0.48 0.48 0 1 0 -0.96 0Z M4.02 25.5 a0.48 0.48 0 1 0 0.96 0 a0.48 0.48 0 1 0 -0.96 0Z M5.02 25.5 a0.48 0.48 0 1 0 0.96 0 a0.48 0.48 0 1 0 -0.96 0Z M12.02 25.5 a0.48 0.48 0 1 0 0.96 0 a0.48 0.48 0 1 0 -0.96 0Z M14.02 25.5 a0.48 0.48 0 1 0 0.96 0 a0.48 0.48 0 1 0 -0.96 0Z M16.02 25.5 a0.48 0.48 0 1 0 0.96 0 a0.48 0.48 0 1 0 -0.96 0Z M17.02 25.5 a0.48 0.48 0 1 0 0.96 0 a0.48 0.48 0 1 0 -0.96 0Z M19.02 25.5 a0.48 0.48 0 1 0 0.96 0 a0.48 0.48 0 1 0 -0.96 0Z M20.02 25.5 a0.48 0.48 0 1 0 0.96 0 a0.48 0.48 0 1 0 -0.96 0Z M22.02 25.5 a0.48 0.48 0 1 0 0.96 0 a0.48 0.48 0 1 0 -0.96 0Z M23.02 25.5 a0.48 0.48 0 1 0 0.96 0 a0.48 0.48 0 1 0 -0.96 0Z M24.02 25.5 a0.48 0.48 0 1 0 0.96 0 a0.48 0.48 0 1 0 -0.96 0Z M25.02 25.5 a0.48 0.48 0 1 0 0.96 0 a0.48 0.48 0 1 0 -0.96 0Z M26.02 25.5 a0.48 0.48 0 1 0 0.96 0 a0.48 0.48 0 1 0 -0.96 0Z M29.02 25.5 a0.48 0.48 0 1 0 0.96 0 a0.48 0.48 0 1 0 -0.96 0Z M31.02 25.5 a0.48 0.48 0 1 0 0.96 0 a0.48 0.48 0 1 0 -0.96 0Z M35.02 25.5 a0.48 0.48 0 1 0 0.96 0 a0.48 0.48 0 1 0 -0.96 0Z M36.02 25.5 a0.48 0.48 0 1 0 0.96 0 a0.48 0.48 0 1 0 -0.96 0Z M1.02 26.5 a0.48 0.48 0 1 0 0.96 0 a0.48 0.48 0 1 0 -0.96 0Z M2.02 26.5 a0.48 0.48 0 1 0 0.96 0 a0.48 0.48 0 1 0 -0.96 0Z M3.02 26.5 a0.48 0.48 0 1 0 0.96 0 a0.48 0.48 0 1 0 -0.96 0Z M4.02 26.5 a0.48 0.48 0 1 0 0.96 0 a0.48 0.48 0 1 0 -0.96 0Z M5.02 26.5 a0.48 0.48 0 1 0 0.96 0 a0.48 0.48 0 1 0 -0.96 0Z M6.02 26.5 a0.48 0.48 0 1 0 0.96 0 a0.48 0.48 0 1 0 -0.96 0Z M7.02 26.5 a0.48 0.48 0 1 0 0.96 0 a0.48 0.48 0 1 0 -0.96 0Z M8.02 26.5 a0.48 0.48 0 1 0 0.96 0 a0.48 0.48 0 1 0 -0.96 0Z M11.02 26.5 a0.48 0.48 0 1 0 0.96 0 a0.48 0.48 0 1 0 -0.96 0Z M12.02 26.5 a0.48 0.48 0 1 0 0.96 0 a0.48 0.48 0 1 0 -0.96 0Z M13.02 26.5 a0.48 0.48 0 1 0 0.96 0 a0.48 0.48 0 1 0 -0.96 0Z M22.02 26.5 a0.48 0.48 0 1 0 0.96 0 a0.48 0.48 0 1 0 -0.96 0Z M23.02 26.5 a0.48 0.48 0 1 0 0.96 0 a0.48 0.48 0 1 0 -0.96 0Z M25.02 26.5 a0.48 0.48 0 1 0 0.96 0 a0.48 0.48 0 1 0 -0.96 0Z M31.02 26.5 a0.48 0.48 0 1 0 0.96 0 a0.48 0.48 0 1 0 -0.96 0Z M32.02 26.5 a0.48 0.48 0 1 0 0.96 0 a0.48 0.48 0 1 0 -0.96 0Z M33.02 26.5 a0.48 0.48 0 1 0 0.96 0 a0.48 0.48 0 1 0 -0.96 0Z M34.02 26.5 a0.48 0.48 0 1 0 0.96 0 a0.48 0.48 0 1 0 -0.96 0Z M35.02 26.5 a0.48 0.48 0 1 0 0.96 0 a0.48 0.48 0 1 0 -0.96 0Z M0.02 27.5 a0.48 0.48 0 1 0 0.96 0 a0.48 0.48 0 1 0 -0.96 0Z M2.02 27.5 a0.48 0.48 0 1 0 0.96 0 a0.48 0.48 0 1 0 -0.96 0Z M4.02 27.5 a0.48 0.48 0 1 0 0.96 0 a0.48 0.48 0 1 0 -0.96 0Z M8.02 27.5 a0.48 0.48 0 1 0 0.96 0 a0.48 0.48 0 1 0 -0.96 0Z M15.02 27.5 a0.48 0.48 0 1 0 0.96 0 a0.48 0.48 0 1 0 -0.96 0Z M17.02 27.5 a0.48 0.48 0 1 0 0.96 0 a0.48 0.48 0 1 0 -0.96 0Z M18.02 27.5 a0.48 0.48 0 1 0 0.96 0 a0.48 0.48 0 1 0 -0.96 0Z M19.02 27.5 a0.48 0.48 0 1 0 0.96 0 a0.48 0.48 0 1 0 -0.96 0Z M20.02 27.5 a0.48 0.48 0 1 0 0.96 0 a0.48 0.48 0 1 0 -0.96 0Z M21.02 27.5 a0.48 0.48 0 1 0 0.96 0 a0.48 0.48 0 1 0 -0.96 0Z M22.02 27.5 a0.48 0.48 0 1 0 0.96 0 a0.48 0.48 0 1 0 -0.96 0Z M23.02 27.5 a0.48 0.48 0 1 0 0.96 0 a0.48 0.48 0 1 0 -0.96 0Z M26.02 27.5 a0.48 0.48 0 1 0 0.96 0 a0.48 0.48 0 1 0 -0.96 0Z M27.02 27.5 a0.48 0.48 0 1 0 0.96 0 a0.48 0.48 0 1 0 -0.96 0Z M29.02 27.5 a0.48 0.48 0 1 0 0.96 0 a0.48 0.48 0 1 0 -0.96 0Z M31.02 27.5 a0.48 0.48 0 1 0 0.96 0 a0.48 0.48 0 1 0 -0.96 0Z M32.02 27.5 a0.48 0.48 0 1 0 0.96 0 a0.48 0.48 0 1 0 -0.96 0Z M33.02 27.5 a0.48 0.48 0 1 0 0.96 0 a0.48 0.48 0 1 0 -0.96 0Z M35.02 27.5 a0.48 0.48 0 1 0 0.96 0 a0.48 0.48 0 1 0 -0.96 0Z M36.02 27.5 a0.48 0.48 0 1 0 0.96 0 a0.48 0.48 0 1 0 -0.96 0Z M2.02 28.5 a0.48 0.48 0 1 0 0.96 0 a0.48 0.48 0 1 0 -0.96 0Z M3.02 28.5 a0.48 0.48 0 1 0 0.96 0 a0.48 0.48 0 1 0 -0.96 0Z M6.02 28.5 a0.48 0.48 0 1 0 0.96 0 a0.48 0.48 0 1 0 -0.96 0Z M7.02 28.5 a0.48 0.48 0 1 0 0.96 0 a0.48 0.48 0 1 0 -0.96 0Z M13.02 28.5 a0.48 0.48 0 1 0 0.96 0 a0.48 0.48 0 1 0 -0.96 0Z M15.02 28.5 a0.48 0.48 0 1 0 0.96 0 a0.48 0.48 0 1 0 -0.96 0Z M16.02 28.5 a0.48 0.48 0 1 0 0.96 0 a0.48 0.48 0 1 0 -0.96 0Z M17.02 28.5 a0.48 0.48 0 1 0 0.96 0 a0.48 0.48 0 1 0 -0.96 0Z M24.02 28.5 a0.48 0.48 0 1 0 0.96 0 a0.48 0.48 0 1 0 -0.96 0Z M25.02 28.5 a0.48 0.48 0 1 0 0.96 0 a0.48 0.48 0 1 0 -0.96 0Z M28 28 h1 v1 h-1Z M29 28 h1 v1 h-1Z M30 28 h1 v1 h-1Z M31 28 h1 v1 h-1Z M32 28 h1 v1 h-1Z M33.02 28.5 a0.48 0.48 0 1 0 0.96 0 a0.48 0.48 0 1 0 -0.96 0Z M36.02 28.5 a0.48 0.48 0 1 0 0.96 0 a0.48 0.48 0 1 0 -0.96 0Z M8.02 29.5 a0.48 0.48 0 1 0 0.96 0 a0.48 0.48 0 1 0 -0.96 0Z M9.02 29.5 a0.48 0.48 0 1 0 0.96 0 a0.48 0.48 0 1 0 -0.96 0Z M10.02 29.5 a0.48 0.48 0 1 0 0.96 0 a0.48 0.48 0 1 0 -0.96 0Z M11.02 29.5 a0.48 0.48 0 1 0 0.96 0 a0.48 0.48 0 1 0 -0.96 0Z M12.02 29.5 a0.48 0.48 0 1 0 0.96 0 a0.48 0.48 0 1 0 -0.96 0Z M14.02 29.5 a0.48 0.48 0 1 0 0.96 0 a0.48 0.48 0 1 0 -0.96 0Z M16.02 29.5 a0.48 0.48 0 1 0 0.96 0 a0.48 0.48 0 1 0 -0.96 0Z M17.02 29.5 a0.48 0.48 0 1 0 0.96 0 a0.48 0.48 0 1 0 -0.96 0Z M18.02 29.5 a0.48 0.48 0 1 0 0.96 0 a0.48 0.48 0 1 0 -0.96 0Z M19.02 29.5 a0.48 0.48 0 1 0 0.96 0 a0.48 0.48 0 1 0 -0.96 0Z M21.02 29.5 a0.48 0.48 0 1 0 0.96 0 a0.48 0.48 0 1 0 -0.96 0Z M22.02 29.5 a0.48 0.48 0 1 0 0.96 0 a0.48 0.48 0 1 0 -0.96 0Z M23.02 29.5 a0.48 0.48 0 1 0 0.96 0 a0.48 0.48 0 1 0 -0.96 0Z M27.02 29.5 a0.48 0.48 0 1 0 0.96 0 a0.48 0.48 0 1 0 -0.96 0Z M28 29 h1 v1 h-1Z M32 29 h1 v1 h-1Z M33.02 29.5 a0.48 0.48 0 1 0 0.96 0 a0.48 0.48 0 1 0 -0.96 0Z M34.02 29.5 a0.48 0.48 0 1 0 0.96 0 a0.48 0.48 0 1 0 -0.96 0Z M35.02 29.5 a0.48 0.48 0 1 0 0.96 0 a0.48 0.48 0 1 0 -0.96 0Z
M36.02 29.5 a0.48 0.48 0 1 0 0.96 0 a0.48 0.48 0 1 0 -0.96 0Z M0 30 h1 v1 h-1Z M1 30 h1 v1 h-1Z M2 30 h1 v1 h-1Z M3 30 h1 v1 h-1Z M4 30 h1 v1 h-1Z M5 30 h1 v1 h-1Z M6 30 h1 v1 h-1Z M8.02 30.5 a0.48 0.48 0 1 0 0.96 0 a0.48 0.48 0 1 0 -0.96 0Z M9.02 30.5 a0.48 0.48 0 1 0 0.96 0 a0.48 0.48 0 1 0 -0.96 0Z M10.02 30.5 a0.48 0.48 0 1 0 0.96 0 a0.48 0.48 0 1 0 -0.96 0Z M11.02 30.5 a0.48 0.48 0 1 0 0.96 0 a0.48 0.48 0 1 0 -0.96 0Z M12.02 30.5 a0.48 0.48 0 1 0 0.96 0 a0.48 0.48 0 1 0 -0.96 0Z M14.02 30.5 a0.48 0.48 0 1 0 0.96 0 a0.48 0.48 0 1 0 -0.96 0Z M19.02 30.5 a0.48 0.48 0 1 0 0.96 0 a0.48 0.48 0 1 0 -0.96 0Z M24.02 30.5 a0.48 0.48 0 1 0 0.96 0 a0.48 0.48 0 1 0 -0.96 0Z M25.02 30.5 a0.48 0.48 0 1 0 0.96 0 a0.48 0.48 0 1 0 -0.96 0Z M26.02 30.5 a0.48 0.48 0 1 0 0.96 0 a0.48 0.48 0 1 0 -0.96 0Z M28 30 h1 v1 h-1Z M30 30 h1 v1 h-1Z M32 30 h1 v1 h-1Z M33.02 30.5 a0.48 0.48 0 1 0 0.96 0 a0.48 0.48 0 1 0 -0.96 0Z M35.02 30.5 a0.48 0.48 0 1 0 0.96 0 a0.48 0.48 0 1 0 -0.96 0Z M36.02 30.5 a0.48 0.48 0 1 0 0.96 0 a0.48 0.48 0 1 0 -0.96 0Z M0 31 h1 v1 h-1Z M6 31 h1 v1 h-1Z M9.02 31.5 a0.48 0.48 0 1 0 0.96 0 a0.48 0.48 0 1 0 -0.96 0Z M12.02 31.5 a0.48 0.48 0 1 0 0.96 0 a0.48 0.48 0 1 0 -0.96 0Z M14.02 31.5 a0.48 0.48 0 1 0 0.96 0 a0.48 0.48 0 1 0 -0.96 0Z M17.02 31.5 a0.48 0.48 0 1 0 0.96 0 a0.48 0.48 0 1 0 -0.96 0Z M19.02 31.5 a0.48 0.48 0 1 0 0.96 0 a0.48 0.48 0 1 0 -0.96 0Z M20.02 31.5 a0.48 0.48 0 1 0 0.96 0 a0.48 0.48 0 1 0 -0.96 0Z M21.02 31.5 a0.48 0.48 0 1 0 0.96 0 a0.48 0.48 0 1 0 -0.96 0Z M22.02 31.5 a0.48 0.48 0 1 0 0.96 0 a0.48 0.48 0 1 0 -0.96 0Z M27.02 31.5 a0.48 0.48 0 1 0 0.96 0 a0.48 0.48 0 1 0 -0.96 0Z M28 31 h1 v1 h-1Z M32 31 h1 v1 h-1Z M33.02 31.5 a0.48 0.48 0 1 0 0.96 0 a0.48 0.48 0 1 0 -0.96 0Z M36.02 31.5 a0.48 0.48 0 1 0 0.96 0 a0.48 0.48 0 1 0 -0.96 0Z M0 32 h1 v1 h-1Z M2 32 h1 v1 h-1Z M3 32 h1 v1 h-1Z M4 32 h1 v1 h-1Z M6 32 h1 v1 h-1Z M9.02 32.5 a0.48 0.48 0 1 0 0.96 0 a0.48 0.48 0 1 0 -0.96 0Z M13.02 32.5 a0.48 0.48 0 1 0 0.96 0 a0.48 0.48 0 1 0 -0.96 0Z M15.02 32.5 a0.48 0.48 0 1 0 0.96 0 a0.48 0.48 0 1 0 -0.96 0Z M20.02 32.5 a0.48 0.48 0 1 0 0.96 0 a0.48 0.48 0 1 0 -0.96 0Z M21.02 32.5 a0.48 0.48 0 1 0 0.96 0 a0.48 0.48 0 1 0 -0.96 0Z M24.02 32.5 a0.48 0.48 0 1 0 0.96 0 a0.48 0.48 0 1 0 -0.96 0Z M26.02 32.5 a0.48 0.48 0 1 0 0.96 0 a0.48 0.48 0 1 0 -0.96 0Z M28 32 h1 v1 h-1Z M29 32 h1 v1 h-1Z M30 32 h1 v1 h-1Z M31 32 h1 v1 h-1Z M32 32 h1 v1 h-1Z M33.02 32.5 a0.48 0.48 0 1 0 0.96 0 a0.48 0.48 0 1 0 -0.96 0Z M35.02 32.5 a0.48 0.48 0 1 0 0.96 0 a0.48 0.48 0 1 0 -0.96 0Z M36.02 32.5 a0.48 0.48 0 1 0 0.96 0 a0.48 0.48 0 1 0 -0.96 0Z M0 33 h1 v1 h-1Z M2 33 h1 v1 h-1Z M3 33 h1 v1 h-1Z M4 33 h1 v1 h-1Z M6 33 h1 v1 h-1Z M8.02 33.5 a0.48 0.48 0 1 0 0.96 0 a0.48 0.48 0 1 0 -0.96 0Z M9.02 33.5 a0.48 0.48 0 1 0 0.96 0 a0.48 0.48 0 1 0 -0.96 0Z M12.02 33.5 a0.48 0.48 0 1 0 0.96 0 a0.48 0.48 0 1 0 -0.96 0Z M14.02 33.5 a0.48 0.48 0 1 0 0.96 0 a0.48 0.48 0 1 0 -0.96 0Z M15.02 33.5 a0.48 0.48 0 1 0 0.96 0 a0.48 0.48 0 1 0 -0.96 0Z M16.02 33.5 a0.48 0.48 0 1 0 0.96 0 a0.48 0.48 0 1 0 -0.96 0Z M17.02 33.5 a0.48 0.48 0 1 0 0.96 0 a0.48 0.48 0 1 0 -0.96 0Z M18.02 33.5 a0.48 0.48 0 1 0 0.96 0 a0.48 0.48 0 1 0 -0.96 0Z M20.02 33.5 a0.48 0.48 0 1 0 0.96 0 a0.48 0.48 0 1 0 -0.96 0Z M22.02 33.5 a0.48 0.48 0 1 0 0.96 0 a0.48 0.48 0 1 0 -0.96 0Z M24.02 33.5 a0.48 0.48 0 1 0 0.96 0 a0.48 0.48 0 1 0 -0.96 0Z M27.02 33.5 a0.48 0.48 0 1 0 0.96 0 a0.48 0.48 0 1 0 -0.96 0Z M30.02 33.5 a0.48 0.48 0 1 0 0.96 0 a0.48 0.48 0 1 0 -0.96 0Z M31.02 33.5 a0.48 0.48 0 1 0 0.96 0 a0.48 0.48 0 1 0 -0.96 0Z M32.02 33.5 a0.48 0.48 0 1 0 0.96 0 a0.48 0.48 0 1 0 -0.96 0Z M33.02 33.5 a0.48 0.48 0 1 0 0.96 0 a0.48 0.48 0 1 0 -0.96 0Z M0 34 h1 v1 h-1Z M2 34 h1 v1 h-1Z M3 34 h1 v1 h-1Z M4 34 h1 v1 h-1Z M6 34 h1 v1 h-1Z M8.02 34.5 a0.48 0.48 0 1 0 0.96 0 a0.48 0.48 0 1 0 -0.96 0Z M10.02 34.5 a0.48 0.48 0 1 0 0.96 0 a0.48 0.48 0 1 0 -0.96 0Z M12.02 34.5 a0.48 0.48 0 1 0 0.96 0 a0.48 0.48 0 1 0 -0.96 0Z M13.02 34.5 a0.48 0.48 0 1 0 0.96 0 a0.48 0.48 0 1 0 -0.96 0Z M14.02 34.5 a0.48 0.48 0 1 0 0.96 0 a0.48 0.48 0 1 0 -0.96 0Z M17.02 34.5 a0.48 0.48 0 1 0 0.96 0 a0.48 0.48 0 1 0 -0.96 0Z M18.02 34.5 a0.48 0.48 0 1 0 0.96 0 a0.48 0.48 0 1 0 -0.96 0Z M22.02 34.5 a0.48 0.48 0 1 0 0.96 0 a0.48 0.48 0 1 0 -0.96 0Z M23.02 34.5 a0.48 0.48 0 1 0 0.96 0 a0.48 0.48 0 1 0 -0.96 0Z M24.02 34.5 a0.48 0.48 0 1 0 0.96 0 a0.48 0.48 0 1 0 -0.96 0Z M25.02 34.5 a0.48 0.48 0 1 0 0.96 0 a0.48 0.48 0 1 0 -0.96 0Z M27.02 34.5 a0.48 0.48 0 1 0 0.96 0 a0.48 0.48 0 1 0 -0.96 0Z M30.02 34.5 a0.48 0.48 0 1 0 0.96 0 a0.48 0.48 0 1 0 -0.96 0Z M31.02 34.5 a0.48 0.48 0 1 0 0.96 0 a0.48 0.48 0 1 0 -0.96 0Z M32.02 34.5 a0.48 0.48 0 1 0 0.96 0 a0.48 0.48 0 1 0 -0.96 0Z
M33.02 34.5 a0.48 0.48 0 1 0 0.96 0 a0.48 0.48 0 1 0 -0.96 0Z M35.02 34.5 a0.48 0.48 0 1 0 0.96 0 a0.48 0.48 0 1 0 -0.96 0Z M0 35 h1 v1 h-1Z M6 35 h1 v1 h-1Z M10.02 35.5 a0.48 0.48 0 1 0 0.96 0 a0.48 0.48 0 1 0 -0.96 0Z M12.02 35.5 a0.48 0.48 0 1 0 0.96 0 a0.48 0.48 0 1 0 -0.96 0Z M13.02 35.5 a0.48 0.48 0 1 0 0.96 0 a0.48 0.48 0 1 0 -0.96 0Z M14.02 35.5 a0.48 0.48 0 1 0 0.96 0 a0.48 0.48 0 1 0 -0.96 0Z M15.02 35.5 a0.48 0.48 0 1 0 0.96 0 a0.48 0.48 0 1 0 -0.96 0Z M16.02 35.5 a0.48 0.48 0 1 0 0.96 0 a0.48 0.48 0 1 0 -0.96 0Z M17.02 35.5 a0.48 0.48 0 1 0 0.96 0 a0.48 0.48 0 1 0 -0.96 0Z M19.02 35.5 a0.48 0.48 0 1 0 0.96 0 a0.48 0.48 0 1 0 -0.96 0Z M20.02 35.5 a0.48 0.48 0 1 0 0.96 0 a0.48 0.48 0 1 0 -0.96 0Z M25.02 35.5 a0.48 0.48 0 1 0 0.96 0 a0.48 0.48 0 1 0 -0.96 0Z M29.02 35.5 a0.48 0.48 0 1 0 0.96 0 a0.48 0.48 0 1 0 -0.96 0Z M30.02 35.5 a0.48 0.48 0 1 0 0.96 0 a0.48 0.48 0 1 0 -0.96 0Z M33.02 35.5 a0.48 0.48 0 1 0 0.96 0 a0.48 0.48 0 1 0 -0.96 0Z M34.02 35.5 a0.48 0.48 0 1 0 0.96 0 a0.48 0.48 0 1 0 -0.96 0Z M0 36 h1 v1 h-1Z M1 36 h1 v1 h-1Z M2 36 h1 v1 h-1Z M3 36 h1 v1 h-1Z M4 36 h1 v1 h-1Z M5 36 h1 v1 h-1Z M6 36 h1 v1 h-1Z M9.02 36.5 a0.48 0.48 0 1 0 0.96 0 a0.48 0.48 0 1 0 -0.96 0Z M12.02 36.5 a0.48 0.48 0 1 0 0.96 0 a0.48 0.48 0 1 0 -0.96 0Z M16.02 36.5 a0.48 0.48 0 1 0 0.96 0 a0.48 0.48 0 1 0 -0.96 0Z M21.02 36.5 a0.48 0.48 0 1 0 0.96 0 a0.48 0.48 0 1 0 -0.96 0Z M22.02 36.5 a0.48 0.48 0 1 0 0.96 0 a0.48 0.48 0 1 0 -0.96 0Z M25.02 36.5 a0.48 0.48 0 1 0 0.96 0 a0.48 0.48 0 1 0 -0.96 0Z M29.02 36.5 a0.48 0.48 0 1 0 0.96 0 a0.48 0.48 0 1 0 -0.96 0Z M30.02 36.5 a0.48 0.48 0 1 0 0.96 0 a0.48 0.48 0 1 0 -0.96 0Z M34.02 36.5 a0.48 0.48 0 1 0 0.96 0 a0.48 0.48 0 1 0 -0.96 0Z M35.02 36.5 a0.48 0.48 0 1 0 0.96 0 a0.48 0.48 0 1 0 -0.96 0Z M36.02 36.5 a0.48 0.48 0 1 0 0.96 0 a0.48 0.48 0 1 0 -0.96 0Z"/>
<g transform="translate(14.8 14.8) scale(0.2)" class="dark">
	<svg xmlns="http://www.w3.org/2000/svg" viewBox="0 0 63 63">
  <path fill="#2f3a93" d="M6 0h51c3.3 0 6 2.7 6 6v51c0 3.3-2.7 6-6 6H6c-3.3 0-6-2.7-6-6V6c0-3.3 2.7-6 6-6z"/>
  <path d="M27.8 35.6V16.5H8.6s12.9 11.1 15.1 29.9c0-.1 4.1-2.6 4.1-10.8z" fill="#f796b9"/>
  <path fill="#2f3a93" d="M38.7 31.3V16.5H27.8v19.1c0 8.2-4.1 10.8-4.1 10.8 4 0 7.8-1.6 10.6-4.4 2.8-2.9 4.4-6.8 4.4-10.7z"/>
  <path d="M39.5 16.5h-.8v14.8c0 4-1.6 7.8-4.4 10.6-2.8 2.8-6.6 4.4-10.6 4.4h15.8c2 0 3.9-.4 5.7-1.1 1.8-.7 3.5-1.8 4.8-3.2 1.4-1.4 2.5-3 3.2-4.8.7-1.8 1.1-3.8 1.1-5.7 0-2-.4-3.9-1.1-5.7-.7-1.8-1.8-3.5-3.2-4.8-1.4-1.4-3-2.5-4.8-3.2-1.8-.9-3.8-1.3-5.7-1.3z" fill="#0cd9dc"/>
</svg>
</g>
</svg>
